<mxfile host="Electron" modified="2023-08-07T15:37:12.498Z" agent="Mozilla/5.0 (Windows NT 10.0; Win64; x64) AppleWebKit/537.36 (KHTML, like Gecko) draw.io/21.5.1 Chrome/112.0.5615.204 Electron/24.6.0 Safari/537.36" etag="TIHIr-2KQaEev0riCUrE" version="21.5.1" type="device" pages="2">
  <diagram name="Page-1" id="QKJ--xUiAQf0WkbqptOl">
    <mxGraphModel dx="2329" dy="672" grid="1" gridSize="10" guides="1" tooltips="1" connect="1" arrows="1" fold="1" page="1" pageScale="1" pageWidth="827" pageHeight="1169" math="0" shadow="0">
      <root>
        <mxCell id="0" />
        <mxCell id="1" parent="0" />
        <mxCell id="em8yH6Y3Vznpvo1-onmq-18" style="edgeStyle=none;rounded=0;orthogonalLoop=1;jettySize=auto;html=1;endArrow=none;endFill=0;startArrow=ERone;startFill=0;" parent="1" source="U4CnmKO_1GTpJJscIQHz-27" target="em8yH6Y3Vznpvo1-onmq-10" edge="1">
          <mxGeometry relative="1" as="geometry" />
        </mxCell>
        <mxCell id="em8yH6Y3Vznpvo1-onmq-40" style="edgeStyle=none;rounded=0;orthogonalLoop=1;jettySize=auto;html=1;endArrow=none;endFill=0;" parent="1" source="U4CnmKO_1GTpJJscIQHz-27" target="U4CnmKO_1GTpJJscIQHz-28" edge="1">
          <mxGeometry relative="1" as="geometry" />
        </mxCell>
        <mxCell id="em8yH6Y3Vznpvo1-onmq-41" style="edgeStyle=none;rounded=0;orthogonalLoop=1;jettySize=auto;html=1;endArrow=none;endFill=0;" parent="1" source="U4CnmKO_1GTpJJscIQHz-27" target="U4CnmKO_1GTpJJscIQHz-30" edge="1">
          <mxGeometry relative="1" as="geometry" />
        </mxCell>
        <mxCell id="em8yH6Y3Vznpvo1-onmq-42" style="edgeStyle=none;rounded=0;orthogonalLoop=1;jettySize=auto;html=1;endArrow=none;endFill=0;" parent="1" source="U4CnmKO_1GTpJJscIQHz-27" target="U4CnmKO_1GTpJJscIQHz-31" edge="1">
          <mxGeometry relative="1" as="geometry" />
        </mxCell>
        <mxCell id="em8yH6Y3Vznpvo1-onmq-43" style="edgeStyle=none;rounded=0;orthogonalLoop=1;jettySize=auto;html=1;endArrow=none;endFill=0;" parent="1" source="U4CnmKO_1GTpJJscIQHz-27" target="U4CnmKO_1GTpJJscIQHz-35" edge="1">
          <mxGeometry relative="1" as="geometry" />
        </mxCell>
        <mxCell id="em8yH6Y3Vznpvo1-onmq-44" style="edgeStyle=none;rounded=0;orthogonalLoop=1;jettySize=auto;html=1;endArrow=none;endFill=0;" parent="1" source="U4CnmKO_1GTpJJscIQHz-27" target="U4CnmKO_1GTpJJscIQHz-29" edge="1">
          <mxGeometry relative="1" as="geometry" />
        </mxCell>
        <mxCell id="em8yH6Y3Vznpvo1-onmq-45" style="edgeStyle=none;rounded=0;orthogonalLoop=1;jettySize=auto;html=1;endArrow=none;endFill=0;" parent="1" source="U4CnmKO_1GTpJJscIQHz-27" target="U4CnmKO_1GTpJJscIQHz-32" edge="1">
          <mxGeometry relative="1" as="geometry" />
        </mxCell>
        <mxCell id="U4CnmKO_1GTpJJscIQHz-27" value="Hóa đơn" style="rounded=0;whiteSpace=wrap;html=1;" parent="1" vertex="1">
          <mxGeometry x="577" y="660" width="156" height="60" as="geometry" />
        </mxCell>
        <mxCell id="U4CnmKO_1GTpJJscIQHz-28" value="Mã&lt;br/&gt;hóa đơn" style="ellipse;whiteSpace=wrap;html=1;aspect=fixed;" parent="1" vertex="1">
          <mxGeometry x="960" y="560" width="80" height="80" as="geometry" />
        </mxCell>
        <mxCell id="U4CnmKO_1GTpJJscIQHz-29" value="ngày hóa đơn (ngày, tháng, năm)" style="ellipse;whiteSpace=wrap;html=1;aspect=fixed;" parent="1" vertex="1">
          <mxGeometry x="790" y="950" width="90" height="90" as="geometry" />
        </mxCell>
        <mxCell id="U4CnmKO_1GTpJJscIQHz-30" value="Tên&lt;br/&gt;khách hàng" style="ellipse;whiteSpace=wrap;html=1;aspect=fixed;" parent="1" vertex="1">
          <mxGeometry x="910" y="645" width="90" height="90" as="geometry" />
        </mxCell>
        <mxCell id="U4CnmKO_1GTpJJscIQHz-31" value="mã&lt;br/&gt;phòng" style="ellipse;whiteSpace=wrap;html=1;aspect=fixed;" parent="1" vertex="1">
          <mxGeometry x="890" y="740" width="90" height="90" as="geometry" />
        </mxCell>
        <mxCell id="U4CnmKO_1GTpJJscIQHz-32" value="đơn&lt;br/&gt;giá" style="ellipse;whiteSpace=wrap;html=1;aspect=fixed;" parent="1" vertex="1">
          <mxGeometry x="690" y="1000" width="90" height="90" as="geometry" />
        </mxCell>
        <mxCell id="U4CnmKO_1GTpJJscIQHz-35" value="số&lt;br style=&quot;border-color: var(--border-color);&quot;&gt;giờ thuê" style="ellipse;whiteSpace=wrap;html=1;aspect=fixed;" parent="1" vertex="1">
          <mxGeometry x="850" y="850" width="90" height="90" as="geometry" />
        </mxCell>
        <mxCell id="em8yH6Y3Vznpvo1-onmq-19" style="edgeStyle=none;rounded=0;orthogonalLoop=1;jettySize=auto;html=1;entryX=0.5;entryY=1;entryDx=0;entryDy=0;endArrow=none;endFill=0;startArrow=ERmany;startFill=0;" parent="1" source="U4CnmKO_1GTpJJscIQHz-37" target="U4CnmKO_1GTpJJscIQHz-78" edge="1">
          <mxGeometry relative="1" as="geometry" />
        </mxCell>
        <mxCell id="em8yH6Y3Vznpvo1-onmq-20" style="edgeStyle=none;rounded=0;orthogonalLoop=1;jettySize=auto;html=1;entryX=0.5;entryY=0;entryDx=0;entryDy=0;endArrow=none;endFill=0;startArrow=ERmany;startFill=0;" parent="1" source="U4CnmKO_1GTpJJscIQHz-37" target="U4CnmKO_1GTpJJscIQHz-60" edge="1">
          <mxGeometry relative="1" as="geometry" />
        </mxCell>
        <mxCell id="em8yH6Y3Vznpvo1-onmq-22" style="rounded=0;orthogonalLoop=1;jettySize=auto;html=1;entryX=0;entryY=0.5;entryDx=0;entryDy=0;endArrow=none;endFill=0;startArrow=ERmany;startFill=0;" parent="1" source="U4CnmKO_1GTpJJscIQHz-37" target="U4CnmKO_1GTpJJscIQHz-63" edge="1">
          <mxGeometry relative="1" as="geometry" />
        </mxCell>
        <mxCell id="em8yH6Y3Vznpvo1-onmq-24" style="edgeStyle=none;rounded=0;orthogonalLoop=1;jettySize=auto;html=1;endArrow=none;endFill=0;startArrow=ERmany;startFill=0;" parent="1" source="U4CnmKO_1GTpJJscIQHz-37" target="U4CnmKO_1GTpJJscIQHz-64" edge="1">
          <mxGeometry relative="1" as="geometry" />
        </mxCell>
        <mxCell id="em8yH6Y3Vznpvo1-onmq-26" style="edgeStyle=none;rounded=0;orthogonalLoop=1;jettySize=auto;html=1;endArrow=none;endFill=0;startArrow=ERmany;startFill=0;" parent="1" source="U4CnmKO_1GTpJJscIQHz-37" target="U4CnmKO_1GTpJJscIQHz-62" edge="1">
          <mxGeometry relative="1" as="geometry" />
        </mxCell>
        <mxCell id="em8yH6Y3Vznpvo1-onmq-28" style="edgeStyle=none;rounded=0;orthogonalLoop=1;jettySize=auto;html=1;endArrow=none;endFill=0;startArrow=ERmany;startFill=0;" parent="1" source="U4CnmKO_1GTpJJscIQHz-37" target="U4CnmKO_1GTpJJscIQHz-72" edge="1">
          <mxGeometry relative="1" as="geometry" />
        </mxCell>
        <mxCell id="U4CnmKO_1GTpJJscIQHz-37" value="Quản trị" style="rounded=0;whiteSpace=wrap;html=1;" parent="1" vertex="1">
          <mxGeometry x="-180" y="675" width="120" height="60" as="geometry" />
        </mxCell>
        <mxCell id="em8yH6Y3Vznpvo1-onmq-31" style="edgeStyle=orthogonalEdgeStyle;rounded=0;orthogonalLoop=1;jettySize=auto;html=1;endArrow=ERmany;endFill=0;" parent="1" source="U4CnmKO_1GTpJJscIQHz-60" target="U4CnmKO_1GTpJJscIQHz-27" edge="1">
          <mxGeometry relative="1" as="geometry" />
        </mxCell>
        <mxCell id="U4CnmKO_1GTpJJscIQHz-60" value="&lt;font style=&quot;font-size: 14px;&quot;&gt;Tính&lt;br&gt;tổng số lượng cho từng loại thuê phòng.&lt;/font&gt;" style="rhombus;whiteSpace=wrap;html=1;" parent="1" vertex="1">
          <mxGeometry x="-205" y="960" width="170" height="140" as="geometry" />
        </mxCell>
        <mxCell id="em8yH6Y3Vznpvo1-onmq-27" style="edgeStyle=none;rounded=0;orthogonalLoop=1;jettySize=auto;html=1;endArrow=ERmany;endFill=0;" parent="1" source="U4CnmKO_1GTpJJscIQHz-62" target="U4CnmKO_1GTpJJscIQHz-27" edge="1">
          <mxGeometry relative="1" as="geometry" />
        </mxCell>
        <mxCell id="U4CnmKO_1GTpJJscIQHz-62" value="Thêm" style="rhombus;whiteSpace=wrap;html=1;" parent="1" vertex="1">
          <mxGeometry x="250" y="720" width="80" height="80" as="geometry" />
        </mxCell>
        <mxCell id="em8yH6Y3Vznpvo1-onmq-23" style="edgeStyle=none;rounded=0;orthogonalLoop=1;jettySize=auto;html=1;endArrow=ERmany;endFill=0;" parent="1" source="U4CnmKO_1GTpJJscIQHz-63" target="U4CnmKO_1GTpJJscIQHz-27" edge="1">
          <mxGeometry relative="1" as="geometry" />
        </mxCell>
        <mxCell id="U4CnmKO_1GTpJJscIQHz-63" value="Xóa" style="rhombus;whiteSpace=wrap;html=1;" parent="1" vertex="1">
          <mxGeometry x="250" y="440" width="80" height="80" as="geometry" />
        </mxCell>
        <mxCell id="em8yH6Y3Vznpvo1-onmq-25" style="edgeStyle=none;rounded=0;orthogonalLoop=1;jettySize=auto;html=1;endArrow=ERmany;endFill=0;" parent="1" source="U4CnmKO_1GTpJJscIQHz-64" target="U4CnmKO_1GTpJJscIQHz-27" edge="1">
          <mxGeometry relative="1" as="geometry" />
        </mxCell>
        <mxCell id="U4CnmKO_1GTpJJscIQHz-64" value="Sửa" style="rhombus;whiteSpace=wrap;html=1;" parent="1" vertex="1">
          <mxGeometry x="250" y="580" width="80" height="80" as="geometry" />
        </mxCell>
        <mxCell id="em8yH6Y3Vznpvo1-onmq-29" style="edgeStyle=none;rounded=0;orthogonalLoop=1;jettySize=auto;html=1;endArrow=ERmany;endFill=0;" parent="1" source="U4CnmKO_1GTpJJscIQHz-72" target="U4CnmKO_1GTpJJscIQHz-27" edge="1">
          <mxGeometry relative="1" as="geometry" />
        </mxCell>
        <mxCell id="U4CnmKO_1GTpJJscIQHz-72" value="&lt;font style=&quot;font-size: 14px;&quot;&gt;Tìm&lt;br&gt;kiếm&lt;/font&gt;" style="rhombus;whiteSpace=wrap;html=1;" parent="1" vertex="1">
          <mxGeometry x="250" y="855" width="80" height="80" as="geometry" />
        </mxCell>
        <mxCell id="em8yH6Y3Vznpvo1-onmq-21" style="edgeStyle=orthogonalEdgeStyle;rounded=0;orthogonalLoop=1;jettySize=auto;html=1;entryX=0.5;entryY=0;entryDx=0;entryDy=0;endArrow=ERmany;endFill=0;" parent="1" source="U4CnmKO_1GTpJJscIQHz-78" target="U4CnmKO_1GTpJJscIQHz-27" edge="1">
          <mxGeometry relative="1" as="geometry" />
        </mxCell>
        <mxCell id="U4CnmKO_1GTpJJscIQHz-78" value="&lt;div style=&quot;&quot;&gt;&lt;span style=&quot;font-size: 14px; background-color: initial;&quot;&gt;Tính&lt;/span&gt;&lt;/div&gt;&lt;font style=&quot;font-size: 14px;&quot;&gt;&lt;div style=&quot;&quot;&gt;&lt;span style=&quot;background-color: initial;&quot;&gt;trung bình thành tiền trong tháng&lt;/span&gt;&lt;/div&gt;&lt;/font&gt;" style="rhombus;whiteSpace=wrap;html=1;perimeterSpacing=3;align=center;" parent="1" vertex="1">
          <mxGeometry x="-197.5" y="315" width="155" height="140" as="geometry" />
        </mxCell>
        <mxCell id="em8yH6Y3Vznpvo1-onmq-33" style="edgeStyle=none;rounded=0;orthogonalLoop=1;jettySize=auto;html=1;endArrow=none;endFill=0;" parent="1" source="em8yH6Y3Vznpvo1-onmq-8" target="em8yH6Y3Vznpvo1-onmq-14" edge="1">
          <mxGeometry relative="1" as="geometry" />
        </mxCell>
        <mxCell id="em8yH6Y3Vznpvo1-onmq-34" style="edgeStyle=none;rounded=0;orthogonalLoop=1;jettySize=auto;html=1;endArrow=none;endFill=0;" parent="1" source="em8yH6Y3Vznpvo1-onmq-8" target="em8yH6Y3Vznpvo1-onmq-13" edge="1">
          <mxGeometry relative="1" as="geometry" />
        </mxCell>
        <mxCell id="em8yH6Y3Vznpvo1-onmq-35" style="edgeStyle=none;rounded=0;orthogonalLoop=1;jettySize=auto;html=1;endArrow=none;endFill=0;" parent="1" source="em8yH6Y3Vznpvo1-onmq-8" target="em8yH6Y3Vznpvo1-onmq-15" edge="1">
          <mxGeometry relative="1" as="geometry" />
        </mxCell>
        <mxCell id="em8yH6Y3Vznpvo1-onmq-36" style="edgeStyle=none;rounded=0;orthogonalLoop=1;jettySize=auto;html=1;endArrow=none;endFill=0;" parent="1" source="em8yH6Y3Vznpvo1-onmq-8" target="em8yH6Y3Vznpvo1-onmq-11" edge="1">
          <mxGeometry relative="1" as="geometry" />
        </mxCell>
        <mxCell id="em8yH6Y3Vznpvo1-onmq-37" style="edgeStyle=none;rounded=0;orthogonalLoop=1;jettySize=auto;html=1;endArrow=none;endFill=0;" parent="1" source="em8yH6Y3Vznpvo1-onmq-8" target="em8yH6Y3Vznpvo1-onmq-12" edge="1">
          <mxGeometry relative="1" as="geometry" />
        </mxCell>
        <mxCell id="em8yH6Y3Vznpvo1-onmq-38" style="edgeStyle=none;rounded=0;orthogonalLoop=1;jettySize=auto;html=1;endArrow=none;endFill=0;" parent="1" source="em8yH6Y3Vznpvo1-onmq-8" target="em8yH6Y3Vznpvo1-onmq-16" edge="1">
          <mxGeometry relative="1" as="geometry" />
        </mxCell>
        <mxCell id="em8yH6Y3Vznpvo1-onmq-39" style="edgeStyle=none;rounded=0;orthogonalLoop=1;jettySize=auto;html=1;endArrow=none;endFill=0;" parent="1" source="em8yH6Y3Vznpvo1-onmq-8" target="em8yH6Y3Vznpvo1-onmq-17" edge="1">
          <mxGeometry relative="1" as="geometry" />
        </mxCell>
        <mxCell id="em8yH6Y3Vznpvo1-onmq-8" value="&lt;span style=&quot;font-family: &amp;quot;Times New Roman&amp;quot;, serif;&quot;&gt;&lt;font style=&quot;font-size: 14px;&quot;&gt;Phòng&lt;/font&gt;&lt;/span&gt;" style="rounded=0;whiteSpace=wrap;html=1;" parent="1" vertex="1">
          <mxGeometry x="840" y="270" width="120" height="60" as="geometry" />
        </mxCell>
        <mxCell id="em8yH6Y3Vznpvo1-onmq-32" style="rounded=0;orthogonalLoop=1;jettySize=auto;html=1;endArrow=none;endFill=0;startArrow=ERone;startFill=0;" parent="1" source="em8yH6Y3Vznpvo1-onmq-8" target="em8yH6Y3Vznpvo1-onmq-10" edge="1">
          <mxGeometry relative="1" as="geometry" />
        </mxCell>
        <mxCell id="em8yH6Y3Vznpvo1-onmq-10" value="Thay đổi trạng thái" style="rhombus;whiteSpace=wrap;html=1;" parent="1" vertex="1">
          <mxGeometry x="760" y="420" width="140" height="100" as="geometry" />
        </mxCell>
        <mxCell id="em8yH6Y3Vznpvo1-onmq-11" value="&lt;span style=&quot;color: rgb(0, 0, 0); font-family: Helvetica; font-size: 12px; font-style: normal; font-variant-ligatures: normal; font-variant-caps: normal; font-weight: 400; letter-spacing: normal; orphans: 2; text-align: left; text-indent: 0px; text-transform: none; widows: 2; word-spacing: 0px; -webkit-text-stroke-width: 0px; background-color: rgb(251, 251, 251); text-decoration-thickness: initial; text-decoration-style: initial; text-decoration-color: initial; float: none; display: inline !important;&quot;&gt;Id phòng&lt;/span&gt;" style="ellipse;whiteSpace=wrap;html=1;aspect=fixed;" parent="1" vertex="1">
          <mxGeometry x="980" y="110" width="80" height="80" as="geometry" />
        </mxCell>
        <mxCell id="em8yH6Y3Vznpvo1-onmq-12" value="&lt;span style=&quot;color: rgb(0, 0, 0); font-family: Helvetica; font-size: 12px; font-style: normal; font-variant-ligatures: normal; font-variant-caps: normal; font-weight: 400; letter-spacing: normal; orphans: 2; text-align: left; text-indent: 0px; text-transform: none; widows: 2; word-spacing: 0px; -webkit-text-stroke-width: 0px; background-color: rgb(251, 251, 251); text-decoration-thickness: initial; text-decoration-style: initial; text-decoration-color: initial; float: none; display: inline !important;&quot;&gt;Giá phòng&lt;/span&gt;" style="ellipse;whiteSpace=wrap;html=1;aspect=fixed;" parent="1" vertex="1">
          <mxGeometry x="1050" y="170" width="80" height="80" as="geometry" />
        </mxCell>
        <mxCell id="em8yH6Y3Vznpvo1-onmq-13" value="&lt;span style=&quot;color: rgb(0, 0, 0); font-family: Helvetica; font-size: 12px; font-style: normal; font-variant-ligatures: normal; font-variant-caps: normal; font-weight: 400; letter-spacing: normal; orphans: 2; text-align: left; text-indent: 0px; text-transform: none; widows: 2; word-spacing: 0px; -webkit-text-stroke-width: 0px; background-color: rgb(251, 251, 251); text-decoration-thickness: initial; text-decoration-style: initial; text-decoration-color: initial; float: none; display: inline !important;&quot;&gt;Số phòng&lt;/span&gt;" style="ellipse;whiteSpace=wrap;html=1;aspect=fixed;" parent="1" vertex="1">
          <mxGeometry x="800" y="130" width="80" height="80" as="geometry" />
        </mxCell>
        <mxCell id="em8yH6Y3Vznpvo1-onmq-14" value="&lt;span style=&quot;color: rgb(0, 0, 0); font-family: Helvetica; font-size: 12px; font-style: normal; font-variant-ligatures: normal; font-variant-caps: normal; font-weight: 400; letter-spacing: normal; orphans: 2; text-align: left; text-indent: 0px; text-transform: none; widows: 2; word-spacing: 0px; -webkit-text-stroke-width: 0px; background-color: rgb(251, 251, 251); text-decoration-thickness: initial; text-decoration-style: initial; text-decoration-color: initial; float: none; display: inline !important;&quot;&gt;Trạng thái&lt;/span&gt;" style="ellipse;whiteSpace=wrap;html=1;aspect=fixed;" parent="1" vertex="1">
          <mxGeometry x="720" y="190" width="80" height="80" as="geometry" />
        </mxCell>
        <mxCell id="em8yH6Y3Vznpvo1-onmq-15" value="Số khách&amp;nbsp;" style="ellipse;whiteSpace=wrap;html=1;aspect=fixed;" parent="1" vertex="1">
          <mxGeometry x="900" y="70" width="80" height="80" as="geometry" />
        </mxCell>
        <mxCell id="em8yH6Y3Vznpvo1-onmq-16" value="Loại Phòng" style="ellipse;whiteSpace=wrap;html=1;aspect=fixed;" parent="1" vertex="1">
          <mxGeometry x="1040" y="260" width="80" height="80" as="geometry" />
        </mxCell>
        <mxCell id="em8yH6Y3Vznpvo1-onmq-17" value="Mô tả" style="ellipse;whiteSpace=wrap;html=1;aspect=fixed;" parent="1" vertex="1">
          <mxGeometry x="990" y="340" width="80" height="80" as="geometry" />
        </mxCell>
      </root>
    </mxGraphModel>
  </diagram>
  <diagram id="3-f2oju15gTsiiaFbzHB" name="Page-2">
    <mxGraphModel dx="2692" dy="689" grid="1" gridSize="10" guides="1" tooltips="1" connect="1" arrows="1" fold="1" page="1" pageScale="1" pageWidth="827" pageHeight="1169" math="0" shadow="0">
      <root>
        <mxCell id="0" />
        <mxCell id="1" parent="0" />
        <mxCell id="SCRy9BPoPU9TBAXy0XhN-1" style="rounded=0;orthogonalLoop=1;jettySize=auto;html=1;" parent="1" source="SCRy9BPoPU9TBAXy0XhN-7" target="SCRy9BPoPU9TBAXy0XhN-9" edge="1">
          <mxGeometry relative="1" as="geometry" />
        </mxCell>
        <mxCell id="SCRy9BPoPU9TBAXy0XhN-2" style="rounded=0;orthogonalLoop=1;jettySize=auto;html=1;exitX=0;exitY=0;exitDx=0;exitDy=0;" parent="1" source="SCRy9BPoPU9TBAXy0XhN-7" target="SCRy9BPoPU9TBAXy0XhN-12" edge="1">
          <mxGeometry relative="1" as="geometry" />
        </mxCell>
        <mxCell id="SCRy9BPoPU9TBAXy0XhN-3" style="rounded=0;orthogonalLoop=1;jettySize=auto;html=1;exitX=0;exitY=0.5;exitDx=0;exitDy=0;" parent="1" source="SCRy9BPoPU9TBAXy0XhN-7" target="SCRy9BPoPU9TBAXy0XhN-8" edge="1">
          <mxGeometry relative="1" as="geometry" />
        </mxCell>
        <mxCell id="SCRy9BPoPU9TBAXy0XhN-4" style="rounded=0;orthogonalLoop=1;jettySize=auto;html=1;" parent="1" source="SCRy9BPoPU9TBAXy0XhN-7" target="SCRy9BPoPU9TBAXy0XhN-10" edge="1">
          <mxGeometry relative="1" as="geometry" />
        </mxCell>
        <mxCell id="SCRy9BPoPU9TBAXy0XhN-5" style="rounded=0;orthogonalLoop=1;jettySize=auto;html=1;" parent="1" source="SCRy9BPoPU9TBAXy0XhN-7" target="SCRy9BPoPU9TBAXy0XhN-11" edge="1">
          <mxGeometry relative="1" as="geometry" />
        </mxCell>
        <mxCell id="SCRy9BPoPU9TBAXy0XhN-6" style="rounded=0;orthogonalLoop=1;jettySize=auto;html=1;exitX=0.15;exitY=0.028;exitDx=0;exitDy=0;exitPerimeter=0;" parent="1" source="SCRy9BPoPU9TBAXy0XhN-7" target="SCRy9BPoPU9TBAXy0XhN-25" edge="1">
          <mxGeometry relative="1" as="geometry" />
        </mxCell>
        <mxCell id="mQJ2d6jq6MTDk84g4NIz-5" style="rounded=0;orthogonalLoop=1;jettySize=auto;html=1;" parent="1" source="SCRy9BPoPU9TBAXy0XhN-7" target="mQJ2d6jq6MTDk84g4NIz-3" edge="1">
          <mxGeometry relative="1" as="geometry" />
        </mxCell>
        <mxCell id="mQJ2d6jq6MTDk84g4NIz-6" style="rounded=0;orthogonalLoop=1;jettySize=auto;html=1;" parent="1" source="SCRy9BPoPU9TBAXy0XhN-7" target="mQJ2d6jq6MTDk84g4NIz-4" edge="1">
          <mxGeometry relative="1" as="geometry" />
        </mxCell>
        <mxCell id="SCRy9BPoPU9TBAXy0XhN-7" value="&lt;font style=&quot;font-size: 14px;&quot;&gt;Hóa đơn&lt;/font&gt;" style="rounded=0;whiteSpace=wrap;html=1;" parent="1" vertex="1">
          <mxGeometry x="-775" y="660" width="156" height="60" as="geometry" />
        </mxCell>
        <mxCell id="SCRy9BPoPU9TBAXy0XhN-8" value="Ngày nhận phòng" style="ellipse;whiteSpace=wrap;html=1;aspect=fixed;" parent="1" vertex="1">
          <mxGeometry x="-890" y="691.25" width="55" height="55" as="geometry" />
        </mxCell>
        <mxCell id="SCRy9BPoPU9TBAXy0XhN-9" value="Số&amp;nbsp; phòng" style="ellipse;whiteSpace=wrap;html=1;aspect=fixed;" parent="1" vertex="1">
          <mxGeometry x="-790" y="790" width="60" height="60" as="geometry" />
        </mxCell>
        <mxCell id="SCRy9BPoPU9TBAXy0XhN-10" value="Tên khách hàng" style="ellipse;whiteSpace=wrap;html=1;aspect=fixed;" parent="1" vertex="1">
          <mxGeometry x="-870" y="760" width="70" height="70" as="geometry" />
        </mxCell>
        <mxCell id="SCRy9BPoPU9TBAXy0XhN-11" value="Id hóa đơn" style="ellipse;whiteSpace=wrap;html=1;aspect=fixed;" parent="1" vertex="1">
          <mxGeometry x="-720" y="802.5" width="65" height="65" as="geometry" />
        </mxCell>
        <mxCell id="SCRy9BPoPU9TBAXy0XhN-12" value="Ngày rời phòng" style="ellipse;whiteSpace=wrap;html=1;aspect=fixed;" parent="1" vertex="1">
          <mxGeometry x="-870" y="610" width="60" height="60" as="geometry" />
        </mxCell>
        <mxCell id="SCRy9BPoPU9TBAXy0XhN-25" value="Loại hóa đơn&amp;nbsp;" style="ellipse;whiteSpace=wrap;html=1;aspect=fixed;" parent="1" vertex="1">
          <mxGeometry x="-795" y="560" width="70" height="70" as="geometry" />
        </mxCell>
        <mxCell id="SCRy9BPoPU9TBAXy0XhN-30" style="rounded=0;orthogonalLoop=1;jettySize=auto;html=1;entryX=1;entryY=0.5;entryDx=0;entryDy=0;exitX=0;exitY=0.5;exitDx=0;exitDy=0;" parent="1" source="SCRy9BPoPU9TBAXy0XhN-37" target="SCRy9BPoPU9TBAXy0XhN-45" edge="1">
          <mxGeometry relative="1" as="geometry" />
        </mxCell>
        <mxCell id="mQJ2d6jq6MTDk84g4NIz-1" style="edgeStyle=orthogonalEdgeStyle;rounded=0;orthogonalLoop=1;jettySize=auto;html=1;" parent="1" source="SCRy9BPoPU9TBAXy0XhN-37" target="SCRy9BPoPU9TBAXy0XhN-65" edge="1">
          <mxGeometry relative="1" as="geometry" />
        </mxCell>
        <mxCell id="SCRy9BPoPU9TBAXy0XhN-37" value="Quản trị" style="rounded=0;whiteSpace=wrap;html=1;" parent="1" vertex="1">
          <mxGeometry x="-180" y="660" width="120" height="60" as="geometry" />
        </mxCell>
        <mxCell id="SCRy9BPoPU9TBAXy0XhN-44" style="rounded=0;orthogonalLoop=1;jettySize=auto;html=1;entryX=1;entryY=0.5;entryDx=0;entryDy=0;exitX=0;exitY=0.5;exitDx=0;exitDy=0;" parent="1" source="SCRy9BPoPU9TBAXy0XhN-45" target="SCRy9BPoPU9TBAXy0XhN-7" edge="1">
          <mxGeometry relative="1" as="geometry" />
        </mxCell>
        <mxCell id="SCRy9BPoPU9TBAXy0XhN-45" value="&lt;span style=&quot;font-size: 14px;&quot;&gt;Quản lý chức năng&lt;/span&gt;" style="rhombus;whiteSpace=wrap;html=1;" parent="1" vertex="1">
          <mxGeometry x="-470" y="633.75" width="150" height="112.5" as="geometry" />
        </mxCell>
        <mxCell id="SCRy9BPoPU9TBAXy0XhN-64" style="edgeStyle=orthogonalEdgeStyle;rounded=0;orthogonalLoop=1;jettySize=auto;html=1;entryX=0.5;entryY=0;entryDx=0;entryDy=0;" parent="1" source="SCRy9BPoPU9TBAXy0XhN-60" target="SCRy9BPoPU9TBAXy0XhN-7" edge="1">
          <mxGeometry relative="1" as="geometry" />
        </mxCell>
        <mxCell id="mQJ2d6jq6MTDk84g4NIz-14" style="rounded=0;orthogonalLoop=1;jettySize=auto;html=1;" parent="1" source="SCRy9BPoPU9TBAXy0XhN-60" target="mQJ2d6jq6MTDk84g4NIz-10" edge="1">
          <mxGeometry relative="1" as="geometry" />
        </mxCell>
        <mxCell id="mQJ2d6jq6MTDk84g4NIz-15" style="rounded=0;orthogonalLoop=1;jettySize=auto;html=1;entryX=1;entryY=1;entryDx=0;entryDy=0;" parent="1" source="SCRy9BPoPU9TBAXy0XhN-60" target="mQJ2d6jq6MTDk84g4NIz-9" edge="1">
          <mxGeometry relative="1" as="geometry" />
        </mxCell>
        <mxCell id="mQJ2d6jq6MTDk84g4NIz-16" style="rounded=0;orthogonalLoop=1;jettySize=auto;html=1;entryX=0.5;entryY=1;entryDx=0;entryDy=0;" parent="1" source="SCRy9BPoPU9TBAXy0XhN-60" target="mQJ2d6jq6MTDk84g4NIz-11" edge="1">
          <mxGeometry relative="1" as="geometry" />
        </mxCell>
        <mxCell id="mQJ2d6jq6MTDk84g4NIz-17" style="rounded=0;orthogonalLoop=1;jettySize=auto;html=1;" parent="1" source="SCRy9BPoPU9TBAXy0XhN-60" target="mQJ2d6jq6MTDk84g4NIz-7" edge="1">
          <mxGeometry relative="1" as="geometry" />
        </mxCell>
        <mxCell id="mQJ2d6jq6MTDk84g4NIz-18" style="rounded=0;orthogonalLoop=1;jettySize=auto;html=1;" parent="1" source="SCRy9BPoPU9TBAXy0XhN-60" target="mQJ2d6jq6MTDk84g4NIz-8" edge="1">
          <mxGeometry relative="1" as="geometry" />
        </mxCell>
        <mxCell id="mQJ2d6jq6MTDk84g4NIz-19" style="rounded=0;orthogonalLoop=1;jettySize=auto;html=1;" parent="1" source="SCRy9BPoPU9TBAXy0XhN-60" target="mQJ2d6jq6MTDk84g4NIz-12" edge="1">
          <mxGeometry relative="1" as="geometry" />
        </mxCell>
        <mxCell id="mQJ2d6jq6MTDk84g4NIz-20" style="rounded=0;orthogonalLoop=1;jettySize=auto;html=1;" parent="1" source="SCRy9BPoPU9TBAXy0XhN-60" target="mQJ2d6jq6MTDk84g4NIz-13" edge="1">
          <mxGeometry relative="1" as="geometry" />
        </mxCell>
        <mxCell id="SCRy9BPoPU9TBAXy0XhN-60" value="&lt;span style=&quot;font-family: &amp;quot;Times New Roman&amp;quot;, serif;&quot;&gt;&lt;font style=&quot;font-size: 14px;&quot;&gt;Phòng&lt;/font&gt;&lt;/span&gt;" style="rounded=0;whiteSpace=wrap;html=1;" parent="1" vertex="1">
          <mxGeometry x="-180" y="310" width="120" height="60" as="geometry" />
        </mxCell>
        <mxCell id="mQJ2d6jq6MTDk84g4NIz-2" style="edgeStyle=orthogonalEdgeStyle;rounded=0;orthogonalLoop=1;jettySize=auto;html=1;" parent="1" source="SCRy9BPoPU9TBAXy0XhN-65" target="SCRy9BPoPU9TBAXy0XhN-60" edge="1">
          <mxGeometry relative="1" as="geometry" />
        </mxCell>
        <mxCell id="SCRy9BPoPU9TBAXy0XhN-65" value="Quản lý chức năng" style="rhombus;whiteSpace=wrap;html=1;" parent="1" vertex="1">
          <mxGeometry x="-190" y="450" width="140" height="100" as="geometry" />
        </mxCell>
        <mxCell id="mQJ2d6jq6MTDk84g4NIz-3" value="&lt;span style=&quot;color: rgb(0, 0, 0); font-family: Helvetica; font-size: 12px; font-style: normal; font-variant-ligatures: normal; font-variant-caps: normal; font-weight: 400; letter-spacing: normal; orphans: 2; text-align: left; text-indent: 0px; text-transform: none; widows: 2; word-spacing: 0px; -webkit-text-stroke-width: 0px; background-color: rgb(251, 251, 251); text-decoration-thickness: initial; text-decoration-style: initial; text-decoration-color: initial; float: none; display: inline !important;&quot;&gt;Id phòng&lt;/span&gt;" style="ellipse;whiteSpace=wrap;html=1;aspect=fixed;" parent="1" vertex="1">
          <mxGeometry x="-600" y="730" width="65" height="65" as="geometry" />
        </mxCell>
        <mxCell id="mQJ2d6jq6MTDk84g4NIz-4" value="&lt;span style=&quot;color: rgb(0, 0, 0); font-family: Helvetica; font-size: 12px; font-style: normal; font-variant-ligatures: normal; font-variant-caps: normal; font-weight: 400; letter-spacing: normal; orphans: 2; text-align: left; text-indent: 0px; text-transform: none; widows: 2; word-spacing: 0px; -webkit-text-stroke-width: 0px; background-color: rgb(251, 251, 251); text-decoration-thickness: initial; text-decoration-style: initial; text-decoration-color: initial; float: none; display: inline !important;&quot;&gt;Đơn giá&lt;/span&gt;" style="ellipse;whiteSpace=wrap;html=1;aspect=fixed;" parent="1" vertex="1">
          <mxGeometry x="-650" y="780" width="60" height="60" as="geometry" />
        </mxCell>
        <mxCell id="mQJ2d6jq6MTDk84g4NIz-7" value="&lt;span style=&quot;color: rgb(0, 0, 0); font-family: Helvetica; font-size: 12px; font-style: normal; font-variant-ligatures: normal; font-variant-caps: normal; font-weight: 400; letter-spacing: normal; orphans: 2; text-align: left; text-indent: 0px; text-transform: none; widows: 2; word-spacing: 0px; -webkit-text-stroke-width: 0px; background-color: rgb(251, 251, 251); text-decoration-thickness: initial; text-decoration-style: initial; text-decoration-color: initial; float: none; display: inline !important;&quot;&gt;Id phòng&lt;/span&gt;" style="ellipse;whiteSpace=wrap;html=1;aspect=fixed;" parent="1" vertex="1">
          <mxGeometry x="-40" y="150" width="80" height="80" as="geometry" />
        </mxCell>
        <mxCell id="mQJ2d6jq6MTDk84g4NIz-8" value="&lt;span style=&quot;color: rgb(0, 0, 0); font-family: Helvetica; font-size: 12px; font-style: normal; font-variant-ligatures: normal; font-variant-caps: normal; font-weight: 400; letter-spacing: normal; orphans: 2; text-align: left; text-indent: 0px; text-transform: none; widows: 2; word-spacing: 0px; -webkit-text-stroke-width: 0px; background-color: rgb(251, 251, 251); text-decoration-thickness: initial; text-decoration-style: initial; text-decoration-color: initial; float: none; display: inline !important;&quot;&gt;Giá phòng&lt;/span&gt;" style="ellipse;whiteSpace=wrap;html=1;aspect=fixed;" parent="1" vertex="1">
          <mxGeometry x="30" y="210" width="80" height="80" as="geometry" />
        </mxCell>
        <mxCell id="mQJ2d6jq6MTDk84g4NIz-9" value="&lt;span style=&quot;color: rgb(0, 0, 0); font-family: Helvetica; font-size: 12px; font-style: normal; font-variant-ligatures: normal; font-variant-caps: normal; font-weight: 400; letter-spacing: normal; orphans: 2; text-align: left; text-indent: 0px; text-transform: none; widows: 2; word-spacing: 0px; -webkit-text-stroke-width: 0px; background-color: rgb(251, 251, 251); text-decoration-thickness: initial; text-decoration-style: initial; text-decoration-color: initial; float: none; display: inline !important;&quot;&gt;Số phòng&lt;/span&gt;" style="ellipse;whiteSpace=wrap;html=1;aspect=fixed;" parent="1" vertex="1">
          <mxGeometry x="-220" y="170" width="80" height="80" as="geometry" />
        </mxCell>
        <mxCell id="mQJ2d6jq6MTDk84g4NIz-10" value="&lt;span style=&quot;color: rgb(0, 0, 0); font-family: Helvetica; font-size: 12px; font-style: normal; font-variant-ligatures: normal; font-variant-caps: normal; font-weight: 400; letter-spacing: normal; orphans: 2; text-align: left; text-indent: 0px; text-transform: none; widows: 2; word-spacing: 0px; -webkit-text-stroke-width: 0px; background-color: rgb(251, 251, 251); text-decoration-thickness: initial; text-decoration-style: initial; text-decoration-color: initial; float: none; display: inline !important;&quot;&gt;Trạng thái&lt;/span&gt;" style="ellipse;whiteSpace=wrap;html=1;aspect=fixed;" parent="1" vertex="1">
          <mxGeometry x="-300" y="230" width="80" height="80" as="geometry" />
        </mxCell>
        <mxCell id="mQJ2d6jq6MTDk84g4NIz-11" value="Số khách&amp;nbsp;" style="ellipse;whiteSpace=wrap;html=1;aspect=fixed;" parent="1" vertex="1">
          <mxGeometry x="-130" y="130" width="80" height="80" as="geometry" />
        </mxCell>
        <mxCell id="mQJ2d6jq6MTDk84g4NIz-12" value="Loại Phòng" style="ellipse;whiteSpace=wrap;html=1;aspect=fixed;" parent="1" vertex="1">
          <mxGeometry x="20" y="300" width="80" height="80" as="geometry" />
        </mxCell>
        <mxCell id="mQJ2d6jq6MTDk84g4NIz-13" value="Mô tả" style="ellipse;whiteSpace=wrap;html=1;aspect=fixed;" parent="1" vertex="1">
          <mxGeometry x="-30" y="380" width="80" height="80" as="geometry" />
        </mxCell>
      </root>
    </mxGraphModel>
  </diagram>
</mxfile>
